<svg width="1920" height="1080" viewBox="0 0 1920 1080" xmlns="http://www.w3.org/2000/svg"><rect width="1920" height="1080" fill="#d25ff2"/><path d="M 0,1080 C 0,1080 0,180 0,180 C 113.66410256410259,202.0923076923077 227.32820512820518,224.1846153846154 346,216 C 464.6717948717948,207.8153846153846 588.351282051282,169.35384615384615 697,151 C 805.648717948718,132.64615384615385 899.2666666666664,134.4 978,147 C 1056.7333333333336,159.6 1120.5820512820515,183.04615384615386 1225,185 C 1329.4179487179485,186.95384615384614 1474.405128205128,167.41538461538462 1597,163 C 1719.594871794872,158.58461538461538 1819.7974358974361,169.2923076923077 1920,180 C 1920,180 1920,1080 1920,1080 Z" fill="#772ee5" opacity="0.09999999999999999"/><path d="M 0,1080 C 0,1080 0,360 0,360 C 83.27435897435899,361.18461538461537 166.54871794871798,362.36923076923074 270,343 C 373.451282051282,323.63076923076926 497.07948717948716,283.70769230769235 606,303 C 714.9205128205128,322.29230769230765 809.1333333333334,400.79999999999995 911,403 C 1012.8666666666666,405.20000000000005 1122.3871794871795,331.0923076923077 1231,331 C 1339.6128205128205,330.9076923076923 1447.3179487179489,404.8307692307692 1562,422 C 1676.6820512820511,439.1692307692308 1798.3410256410257,399.5846153846154 1920,360 C 1920,360 1920,1080 1920,1080 Z" fill="#772ee5" opacity="0.19999999999999998"/><path d="M 0,1080 C 0,1080 0,540 0,540 C 131.50769230769234,528.7051282051282 263.0153846153847,517.4102564102565 368,520 C 472.9846153846153,522.5897435897435 551.4461538461538,539.0641025641025 642,533 C 732.5538461538462,526.9358974358975 835.2,498.3333333333333 953,501 C 1070.8,503.6666666666667 1203.753846153846,537.6025641025642 1301,545 C 1398.246153846154,552.3974358974358 1459.7846153846153,533.2564102564103 1557,528 C 1654.2153846153847,522.7435897435897 1787.1076923076923,531.3717948717949 1920,540 C 1920,540 1920,1080 1920,1080 Z" fill="#772ee5" opacity="0.3"/><path d="M 0,1080 C 0,1080 0,720 0,720 C 86.29743589743589,734.4769230769231 172.59487179487178,748.9538461538461 297,729 C 421.4051282051282,709.0461538461539 583.9179487179488,654.6615384615384 689,656 C 794.0820512820512,657.3384615384616 841.7333333333332,714.4000000000001 918,719 C 994.2666666666668,723.5999999999999 1099.148717948718,675.7384615384615 1223,674 C 1346.851282051282,672.2615384615385 1489.6717948717946,716.6461538461538 1609,732 C 1728.3282051282054,747.3538461538462 1824.1641025641027,733.6769230769231 1920,720 C 1920,720 1920,1080 1920,1080 Z" fill="#772ee5" opacity="0.39999999999999997"/><path d="M 0,1080 C 0,1080 0,900 0,900 C 106.52820512820512,895.2897435897436 213.05641025641023,890.5794871794872 315,897 C 416.94358974358977,903.4205128205128 514.3025641025641,920.9717948717948 606,924 C 697.6974358974359,927.0282051282052 783.7333333333333,915.5333333333333 901,925 C 1018.2666666666667,934.4666666666667 1166.7641025641028,964.894871794872 1291,945 C 1415.2358974358972,925.105128205128 1515.2102564102563,854.8871794871795 1616,839 C 1716.7897435897437,823.1128205128205 1818.394871794872,861.5564102564102 1920,900 C 1920,900 1920,1080 1920,1080 Z" fill="#772ee5" opacity="0.49999999999999994"/></svg>