<svg width="1920" height="1080" viewBox="0 0 1920 1080" xmlns="http://www.w3.org/2000/svg"><rect width="1920" height="1080" fill="#45d37e"/><path d="M 0,1080 C 0,1080 0,180 0,180 C 139.81538461538463,218.54615384615386 279.63076923076926,257.0923076923077 366,242 C 452.36923076923074,226.9076923076923 485.29230769230765,158.17692307692306 588,143 C 690.7076923076924,127.82307692307694 863.2,166.2 973,193 C 1082.8,219.8 1129.9076923076923,235.02307692307693 1225,215 C 1320.0923076923077,194.97692307692307 1463.1692307692308,139.7076923076923 1587,128 C 1710.8307692307692,116.29230769230769 1815.4153846153845,148.14615384615385 1920,180 C 1920,180 1920,1080 1920,1080 Z" fill="#126432" opacity="0.09999999999999999"/><path d="M 0,1080 C 0,1080 0,360 0,360 C 114.10256410256412,356.06666666666666 228.20512820512823,352.1333333333333 333,350 C 437.79487179487177,347.8666666666667 533.2820512820514,347.53333333333336 641,347 C 748.7179487179486,346.46666666666664 868.6666666666667,345.73333333333323 974,331 C 1079.3333333333333,316.26666666666677 1170.051282051282,287.5333333333334 1277,307 C 1383.948717948718,326.4666666666666 1507.128205128205,394.1333333333333 1617,411 C 1726.871794871795,427.8666666666667 1823.4358974358975,393.93333333333334 1920,360 C 1920,360 1920,1080 1920,1080 Z" fill="#126432" opacity="0.19999999999999998"/><path d="M 0,1080 C 0,1080 0,540 0,540 C 79.49743589743588,522.2128205128205 158.99487179487176,504.425641025641 280,486 C 401.00512820512824,467.574358974359 563.5179487179489,448.51025641025643 689,473 C 814.4820512820511,497.48974358974357 902.9333333333332,565.5333333333334 982,591 C 1061.0666666666668,616.4666666666666 1130.748717948718,599.3564102564103 1221,584 C 1311.251282051282,568.6435897435897 1422.0717948717947,555.0410256410256 1542,548 C 1661.9282051282053,540.9589743589744 1790.9641025641026,540.4794871794873 1920,540 C 1920,540 1920,1080 1920,1080 Z" fill="#126432" opacity="0.3"/><path d="M 0,1080 C 0,1080 0,720 0,720 C 103.55641025641029,697.1153846153846 207.11282051282058,674.2307692307693 323,677 C 438.8871794871794,679.7692307692307 567.105128205128,708.1923076923077 683,732 C 798.894871794872,755.8076923076923 902.4666666666669,775 1006,779 C 1109.533333333333,783 1213.028205128205,771.8076923076924 1323,752 C 1432.971794871795,732.1923076923076 1549.4205128205128,703.7692307692307 1650,697 C 1750.5794871794872,690.2307692307693 1835.2897435897435,705.1153846153846 1920,720 C 1920,720 1920,1080 1920,1080 Z" fill="#126432" opacity="0.39999999999999997"/><path d="M 0,1080 C 0,1080 0,900 0,900 C 107.1410256410256,934.4076923076923 214.2820512820512,968.8153846153846 323,961 C 431.7179487179488,953.1846153846154 542.0128205128207,903.1461538461539 638,870 C 733.9871794871793,836.8538461538461 815.6666666666665,820.6 930,846 C 1044.3333333333335,871.4 1191.320512820513,938.453846153846 1292,965 C 1392.679487179487,991.546153846154 1447.0512820512822,977.5846153846155 1544,960 C 1640.9487179487178,942.4153846153845 1780.474358974359,921.2076923076922 1920,900 C 1920,900 1920,1080 1920,1080 Z" fill="#126432" opacity="0.49999999999999994"/></svg>