<svg width="1920" height="1080" viewBox="0 0 1920 1080" xmlns="http://www.w3.org/2000/svg"><rect width="1920" height="1080" fill="#f7a823"/><path d="M 0,1080 C 0,1080 0,180 0,180 C 125.03846153846152,142.9897435897436 250.07692307692304,105.97948717948718 361,116 C 471.92307692307696,126.02051282051282 568.7307692307693,183.07179487179488 659,195 C 749.2692307692307,206.92820512820512 833,173.73333333333335 935,173 C 1037,172.26666666666665 1157.2692307692307,203.99487179487176 1277,219 C 1396.7307692307693,234.00512820512824 1515.923076923077,232.2871794871795 1623,223 C 1730.076923076923,213.7128205128205 1825.0384615384614,196.85641025641024 1920,180 C 1920,180 1920,1080 1920,1080 Z" fill="#d18400" opacity="0.09999999999999999"/><path d="M 0,1080 C 0,1080 0,360 0,360 C 124.51538461538462,354.7769230769231 249.03076923076924,349.55384615384617 348,358 C 446.96923076923076,366.44615384615383 520.3923076923077,388.5615384615384 622,392 C 723.6076923076923,395.4384615384616 853.3999999999999,380.2 983,357 C 1112.6000000000001,333.8 1242.0076923076922,302.6384615384615 1333,309 C 1423.9923076923078,315.3615384615385 1476.5692307692307,359.24615384615385 1568,374 C 1659.4307692307693,388.75384615384615 1789.7153846153847,374.37692307692305 1920,360 C 1920,360 1920,1080 1920,1080 Z" fill="#d18400" opacity="0.19999999999999998"/><path d="M 0,1080 C 0,1080 0,540 0,540 C 116.97179487179488,555.3435897435897 233.94358974358977,570.6871794871795 325,571 C 416.05641025641023,571.3128205128205 481.19743589743587,556.5948717948718 599,543 C 716.8025641025641,529.4051282051282 887.2666666666667,516.9333333333332 991,534 C 1094.7333333333333,551.0666666666668 1131.7358974358974,597.671794871795 1228,586 C 1324.2641025641026,574.328205128205 1479.7897435897435,504.3794871794872 1605,487 C 1730.2102564102565,469.6205128205128 1825.1051282051283,504.8102564102564 1920,540 C 1920,540 1920,1080 1920,1080 Z" fill="#d18400" opacity="0.3"/><path d="M 0,1080 C 0,1080 0,720 0,720 C 84.45641025641024,696.4615384615385 168.91282051282047,672.9230769230769 279,660 C 389.0871794871795,647.0769230769231 524.8051282051282,644.7692307692308 634,667 C 743.1948717948718,689.2307692307692 825.8666666666666,736.0000000000001 921,760 C 1016.1333333333334,783.9999999999999 1123.7282051282052,785.2307692307692 1238,771 C 1352.2717948717948,756.7692307692308 1473.2205128205128,727.0769230769231 1588,716 C 1702.7794871794872,704.9230769230769 1811.3897435897436,712.4615384615385 1920,720 C 1920,720 1920,1080 1920,1080 Z" fill="#d18400" opacity="0.39999999999999997"/><path d="M 0,1080 C 0,1080 0,900 0,900 C 98.30769230769232,923.0256410256411 196.61538461538464,946.0512820512821 310,947 C 423.38461538461536,947.9487179487179 551.8461538461539,926.8205128205128 668,899 C 784.1538461538461,871.1794871794872 887.9999999999998,836.6666666666667 972,855 C 1056.0000000000002,873.3333333333333 1120.1538461538464,944.5128205128206 1232,946 C 1343.8461538461536,947.4871794871794 1503.3846153846152,879.2820512820513 1626,860 C 1748.6153846153848,840.7179487179487 1834.3076923076924,870.3589743589744 1920,900 C 1920,900 1920,1080 1920,1080 Z" fill="#d18400" opacity="0.49999999999999994"/></svg>