<svg width="1920" height="1080" viewBox="0 0 1920 1080" xmlns="http://www.w3.org/2000/svg"><rect width="1920" height="1080" fill="#3797d7"/><path d="M 0,1080 C 0,1080 0,180 0,180 C 126.68974358974359,162.33589743589744 253.37948717948717,144.67179487179487 347,163 C 440.62051282051283,181.32820512820513 501.1717948717949,235.64871794871794 595,233 C 688.8282051282051,230.35128205128206 815.9333333333334,170.73333333333335 948,146 C 1080.0666666666666,121.26666666666667 1217.0948717948718,131.41794871794872 1328,157 C 1438.9051282051282,182.58205128205128 1523.6871794871795,223.5948717948718 1618,230 C 1712.3128205128205,236.4051282051282 1816.1564102564103,208.2025641025641 1920,180 C 1920,180 1920,1080 1920,1080 Z" fill="#0e3046" opacity="0.09999999999999999"/><path d="M 0,1080 C 0,1080 0,360 0,360 C 108.72820512820513,367.46153846153845 217.45641025641027,374.92307692307696 330,365 C 442.54358974358973,355.07692307692304 558.9025641025642,327.7692307692308 680,328 C 801.0974358974358,328.2307692307692 926.9333333333334,356 1019,365 C 1111.0666666666666,374 1169.3641025641025,364.2307692307692 1249,345 C 1328.6358974358975,325.7692307692308 1429.6102564102564,297.07692307692304 1545,298 C 1660.3897435897436,298.92307692307696 1790.1948717948717,329.46153846153845 1920,360 C 1920,360 1920,1080 1920,1080 Z" fill="#0e3046" opacity="0.19999999999999998"/><path d="M 0,1080 C 0,1080 0,540 0,540 C 86.21025641025639,549.4666666666667 172.42051282051278,558.9333333333333 297,563 C 421.5794871794872,567.0666666666667 584.5282051282052,565.7333333333333 684,541 C 783.4717948717948,516.2666666666667 819.4666666666667,468.1333333333332 920,482 C 1020.5333333333333,495.8666666666668 1185.6051282051283,571.7333333333335 1315,590 C 1444.3948717948717,608.2666666666665 1538.1128205128205,568.9333333333333 1633,551 C 1727.8871794871795,533.0666666666667 1823.9435897435897,536.5333333333333 1920,540 C 1920,540 1920,1080 1920,1080 Z" fill="#0e3046" opacity="0.3"/><path d="M 0,1080 C 0,1080 0,720 0,720 C 100.00512820512822,698.0128205128206 200.01025641025643,676.025641025641 305,672 C 409.98974358974357,667.974358974359 519.9641025641024,681.9102564102564 629,706 C 738.0358974358976,730.0897435897436 846.1333333333334,764.3333333333334 949,764 C 1051.8666666666666,763.6666666666666 1149.502564102564,728.7564102564103 1246,721 C 1342.497435897436,713.2435897435897 1437.8564102564103,732.6410256410256 1550,737 C 1662.1435897435897,741.3589743589744 1791.0717948717947,730.6794871794872 1920,720 C 1920,720 1920,1080 1920,1080 Z" fill="#0e3046" opacity="0.39999999999999997"/><path d="M 0,1080 C 0,1080 0,900 0,900 C 134.71282051282054,885.9615384615386 269.4256410256411,871.923076923077 361,861 C 452.5743589743589,850.076923076923 501.0102564102564,842.2692307692307 602,842 C 702.9897435897436,841.7307692307693 856.5333333333335,849 990,863 C 1123.4666666666665,877 1236.85641025641,897.7307692307694 1333,921 C 1429.14358974359,944.2692307692306 1508.0410256410257,970.076923076923 1603,967 C 1697.9589743589743,963.923076923077 1808.979487179487,931.9615384615386 1920,900 C 1920,900 1920,1080 1920,1080 Z" fill="#0e3046" opacity="0.49999999999999994"/></svg>