<?xml version="1.0" encoding="utf-8"?>
<!-- Generator: Adobe Illustrator 27.8.0, SVG Export Plug-In . SVG Version: 6.00 Build 0)  -->
<svg version="1.1" id="Ebene_1" xmlns="http://www.w3.org/2000/svg" xmlns:xlink="http://www.w3.org/1999/xlink" x="0px" y="0px" height="15"
	 viewBox="0 0 533.7 52.7" style="enable-background:new 0 0 533.7 52.7;" xml:space="preserve">
<style type="text/css">
	.st0{fill:#F7A823;}
	.st1{fill:none;}
	.st2{enable-background:new    ;}
  @media (prefers-color-scheme: dark) {
    path { fill: white; }
  }
</style>
<g>
	<path class="st0" d="M37.9,11H8.7v12.3h14.9c6.5,0,9.6,0.6,12.1,2.6c3.1,2.4,4.9,6.4,4.9,11.1c0,5.5-2.4,9.8-6.7,12.2
		c-2.8,1.6-6.1,2.1-13.1,2.1H0v-7.1h21c3.2,0,5.5-0.4,7-1.1c1.9-0.9,3.1-3.2,3.1-6c0-2.6-1.2-4.8-3.1-5.8c-1.4-0.7-3.2-1-6.9-1H0
		V3.9h37.9V11z"/>
</g>
<rect x="46.3" y="1.1" class="st1" width="487.4" height="60.1"/>
<g class="st2">
	<path d="M92.3,20.8c0,10.4-7.7,16.8-20.1,16.8H61.5v13.7h-8.8V4h19.5C84.6,4,92.3,10.3,92.3,20.8z M83.4,20.8c0-5.9-4-9.4-11.7-9.4
		H61.5v18.8h10.3C79.4,30.2,83.4,26.8,83.4,20.8z"/>
	<path d="M120.8,14.8v8c-0.7-0.1-1.4-0.2-2-0.2c-6.4,0-10.5,3.8-10.5,11.2v17.5h-8.4V15.2h8v5.3C110.4,16.7,114.8,14.8,120.8,14.8z"
		/>
	<path d="M124.7,33.3c0-10.8,8.1-18.5,19.2-18.5c11.2,0,19.3,7.6,19.3,18.5s-8,18.5-19.3,18.5C132.8,51.8,124.7,44.1,124.7,33.3z
		 M154.6,33.3c0-6.9-4.6-11.3-10.7-11.3c-6.1,0-10.7,4.4-10.7,11.3c0,6.9,4.6,11.3,10.7,11.3C150,44.5,154.6,40.2,154.6,33.3z"/>
	<path d="M168.3,33.3c0-10.8,8.1-18.5,19.5-18.5c7,0,12.6,2.9,15.4,8.4l-6.5,3.8c-2.2-3.4-5.4-5-9-5c-6.2,0-11,4.3-11,11.3
		c0,7,4.7,11.3,11,11.3c3.6,0,6.8-1.6,9-5l6.5,3.8c-2.8,5.4-8.4,8.5-15.4,8.5C176.4,51.8,168.3,44.1,168.3,33.3z"/>
	<path d="M243.8,36h-28.3c1,5.3,5.4,8.7,11.7,8.7c4.1,0,7.2-1.3,9.8-3.9l4.5,5.2c-3.2,3.9-8.3,5.9-14.5,5.9
		c-12.1,0-19.9-7.8-19.9-18.5c0-10.7,7.9-18.5,18.7-18.5c10.5,0,18.3,7.4,18.3,18.7C243.9,34.1,243.8,35.2,243.8,36z M215.4,30.4
		h20.5c-0.7-5.2-4.7-8.8-10.2-8.8C220.2,21.6,216.2,25.1,215.4,30.4z"/>
	<path d="M247.9,47.7l3.2-6.4c3.2,2.1,8,3.6,12.6,3.6c5.3,0,7.6-1.5,7.6-4c0-6.9-22.3-0.4-22.3-14.8c0-6.8,6.2-11.3,15.9-11.3
		c4.8,0,10.3,1.1,13.5,3.1l-3.2,6.4c-3.4-2-6.9-2.7-10.3-2.7c-5.1,0-7.6,1.7-7.6,4.1c0,7.3,22.3,0.8,22.3,14.9
		c0,6.8-6.2,11.2-16.4,11.2C257.2,51.8,251.1,50,247.9,47.7z"/>
	<path d="M282.7,47.7l3.2-6.4c3.2,2.1,8,3.6,12.6,3.6c5.3,0,7.6-1.5,7.6-4c0-6.9-22.3-0.4-22.3-14.8c0-6.8,6.2-11.3,15.9-11.3
		c4.8,0,10.3,1.1,13.5,3.1l-3.2,6.4c-3.4-2-6.9-2.7-10.3-2.7c-5.1,0-7.6,1.7-7.6,4.1c0,7.3,22.3,0.8,22.3,14.9
		c0,6.8-6.2,11.2-16.4,11.2C292,51.8,286,50,282.7,47.7z"/>
	<path d="M319.1,27.6c0-14.1,10.8-24.3,25.3-24.3c7.7,0,14.3,2.8,18.7,7.9l-5.7,5.3c-3.4-3.7-7.7-5.5-12.6-5.5
		c-9.8,0-16.9,6.9-16.9,16.6c0,9.7,7.1,16.6,16.9,16.6c4.9,0,9.2-1.8,12.6-5.6l5.7,5.4c-4.4,5.1-11,7.9-18.8,7.9
		C329.9,52,319.1,41.8,319.1,27.6z"/>
	<path d="M404.7,15.2v36.1h-8v-4.6c-2.7,3.3-7,5.1-11.6,5.1c-9.3,0-15.5-5.1-15.5-16V15.2h8.4v19.5c0,6.6,3.1,9.7,8.5,9.7
		c5.9,0,9.9-3.6,9.9-10.9V15.2H404.7z"/>
	<path d="M454.1,33.3c0,11.2-7.8,18.5-18.3,18.5c-4.9,0-9.1-1.7-12-5.1v4.7h-8V1.1h8.5v18.5c2.9-3.2,7-4.8,11.6-4.8
		C446.4,14.8,454.1,22,454.1,33.3z M445.6,33.3c0-6.9-4.6-11.3-10.7-11.3s-10.7,4.4-10.7,11.3c0,6.9,4.7,11.3,10.7,11.3
		S445.6,40.2,445.6,33.3z"/>
	<path d="M496,36h-28.3c1,5.3,5.4,8.7,11.7,8.7c4.1,0,7.2-1.3,9.8-3.9l4.5,5.2c-3.2,3.9-8.3,5.9-14.5,5.9
		c-12.1,0-19.9-7.8-19.9-18.5c0-10.7,7.9-18.5,18.7-18.5c10.5,0,18.3,7.4,18.3,18.7C496.1,34.1,496.1,35.2,496,36z M467.6,30.4h20.5
		c-0.7-5.2-4.7-8.8-10.2-8.8C472.4,21.6,468.4,25.1,467.6,30.4z"/>
	<path d="M528.3,14.9c0,7.8-6.1,14-14,14c-7.8,0-13.9-6.1-13.9-13.9s6-13.9,14-13.9S528.3,7.1,528.3,14.9z M526,14.9
		c0-6.6-4.9-11.7-11.6-11.7c-6.7,0-11.7,5.2-11.7,11.7s5,11.7,11.6,11.7C520.9,26.7,526,21.5,526,14.9z M518.4,17.4l3.5,5.3h-3.4
		l-3.1-4.7H515h-3.1v4.7h-3.4V7.2h6.5c4.1,0,6.5,2.1,6.5,5.4C521.5,15,520.4,16.6,518.4,17.4z M514.8,15.4c2.2,0,3.5-1,3.5-2.8
		c0-1.7-1.3-2.7-3.5-2.7h-2.9v5.5H514.8z"/>
</g>
</svg>
