<?xml version="1.0" encoding="utf-8"?>
<!-- Generator: Adobe Illustrator 27.7.0, SVG Export Plug-In . SVG Version: 6.00 Build 0)  -->
<svg version="1.1" id="Ebene_1" xmlns="http://www.w3.org/2000/svg" xmlns:xlink="http://www.w3.org/1999/xlink" x="0px" y="0px"
	 viewBox="0 0 503.4 509.4" style="enable-background:new 0 0 503.4 509.4;" xml:space="preserve">
<path d="M431.2,477.2h-359c-23.6,0-43-19.4-43-43v-359c0-23.7,19.4-43,43-43h359c23.6,0,43,19.4,43,43v359
	C474.2,457.8,454.9,477.2,431.2,477.2z"/>
<path style="fill:#32B968;" d="M373.7,303.3c-5.7-18.5-21-34.4-43.3-44.8c-23.4-10.8-52.8-14.9-85.2-11.7c-40.8,4-72.4-6-86.7-27.4
	c-8.7-13-9.7-28.7-2.6-41.9c6.7-12.5,19.4-20.6,35.8-23v1.7c0,16.4,13.3,29.7,29.7,29.7h51c16.1,0,29.2-12.9,29.7-28.9
	c1.6,5.2,4.5,10.2,8.6,14.3l0,0c6.6,6.6,15.4,10.2,24.8,10.2s18.2-3.6,24.8-10.2c6.6-6.6,10.2-15.4,10.2-24.8s-3.6-18.2-10.2-24.8
	c-6.6-6.6-15.4-10.2-24.8-10.2s-18.2,3.6-24.8,10.2c-4.1,4.1-7,9-8.6,14.2v-7.1c0-16.4-13.3-29.7-29.7-29.7h-51
	c-16.4,0-29.7,13.3-29.7,29.7v3.1c-25,2.8-44.8,15.2-55.4,35c-10.8,20.3-9.4,45.1,3.7,64.7c19,28.5,58.1,42,107.4,37.2
	c44.7-4.4,95.1,8.2,105,40.8c4,13.2-0.9,26.3-13.5,37.3c-2.8-13.4-14.8-23.6-29.1-23.6h-85.3c-16.4,0-29.7,13.3-29.7,29.7l0,0
	c-1.7-4.1-4.2-7.9-7.5-11.2c-6.6-6.6-15.4-10.2-24.8-10.2s-18.2,3.6-24.8,10.2s-10.2,15.4-10.2,24.8s3.6,18.2,10.2,24.8l0,0
	c6.6,6.6,15.4,10.2,24.8,10.2s18.2-3.6,24.8-10.2c3.3-3.3,5.8-7.1,7.5-11.2l0,0c0,16.4,13.3,29.7,29.7,29.7h85.3
	c16.4,0,29.7-13.3,29.7-29.7v-6.7C368.6,356.3,381.7,329.6,373.7,303.3z M326.5,137.5c2.4-2.4,5.6-3.7,9-3.7s6.6,1.3,9,3.7
	s3.7,5.6,3.7,9s-1.3,6.6-3.7,9c-2.4,2.4-5.6,3.7-9,3.7s-6.6-1.3-9-3.7C321.5,150.6,321.5,142.5,326.5,137.5z M213.9,128.8
	c0-4.1,3.4-7.5,7.5-7.5h51c4.1,0,7.5,3.4,7.5,7.5v27.3c0,4.1-3.4,7.5-7.5,7.5h-51c-4.1,0-7.5-3.4-7.5-7.5V128.8z M171.5,375.9
	c-2.4,2.4-5.6,3.7-9,3.7s-6.6-1.3-9-3.7l0,0c-2.4-2.4-3.7-5.6-3.7-9s1.3-6.6,3.7-9c2.4-2.4,5.6-3.7,9-3.7s6.6,1.3,9,3.7
	C176.5,362.8,176.5,371,171.5,375.9z M317.3,380.6c0,4.1-3.4,7.5-7.5,7.5h-85.3c-4.1,0-7.5-3.4-7.5-7.5v-27.3c0-4.1,3.4-7.5,7.5-7.5
	h85.3c4.1,0,7.5,3.4,7.5,7.5L317.3,380.6L317.3,380.6z"/>
<g>
</g>
<g>
</g>
<g>
</g>
<g>
</g>
<g>
</g>
<g>
</g>
<g>
</g>
<g>
</g>
<g>
</g>
<g>
</g>
<g>
</g>
<g>
</g>
<g>
</g>
<g>
</g>
<g>
</g>
</svg>
