<?xml version="1.0" encoding="utf-8"?>
<!-- Generator: Adobe Illustrator 27.7.0, SVG Export Plug-In . SVG Version: 6.00 Build 0)  -->
<svg version="1.1" id="Ebene_1" xmlns="http://www.w3.org/2000/svg" xmlns:xlink="http://www.w3.org/1999/xlink" x="0px" y="0px"
	 viewBox="0 0 503.4 509.4" style="enable-background:new 0 0 503.4 509.4;" xml:space="preserve">
<path style="fill:#0E2F46;" d="M428.2,481.1h-359c-23.7,0-43-19.4-43-43v-359c0-23.7,19.4-43,43-43h359c23.6,0,43,19.4,43,43v359
	C471.2,461.7,451.8,481.1,428.2,481.1z"/>
<linearGradient id="SVGID_1_" gradientUnits="userSpaceOnUse" x1="124.428" y1="824.3512" x2="372.986" y2="824.3512" gradientTransform="matrix(1 0 0 1 0 -566)">
	<stop  offset="0" style="stop-color:#FF7300"/>
	<stop  offset="0.1611" style="stop-color:#F97C01"/>
	<stop  offset="0.4283" style="stop-color:#EA9602"/>
	<stop  offset="0.5025" style="stop-color:#E59E03"/>
	<stop  offset="1" style="stop-color:#E5C500"/>
</linearGradient>
<path style="fill:url(#SVGID_1_);" d="M370.6,307.2c-5.7-18.5-21-34.4-43.3-44.8c-23.4-10.8-52.8-14.9-85.2-11.7
	c-40.8,4-72.4-6-86.7-27.4c-8.7-13-9.7-28.7-2.6-41.9c6.7-12.5,19.4-20.6,35.8-23v1.7c0,16.4,13.3,29.7,29.7,29.7h51
	c16.1,0,29.2-12.9,29.7-28.9c1.6,5.2,4.5,10.2,8.6,14.3l0,0c6.6,6.6,15.4,10.2,24.8,10.2s18.2-3.6,24.8-10.2
	c6.6-6.6,10.2-15.4,10.2-24.8s-3.6-18.2-10.2-24.8c-6.6-6.6-15.4-10.2-24.8-10.2s-18.2,3.6-24.8,10.2c-4.1,4.1-7,9-8.6,14.2v-7.1
	c0-16.4-13.3-29.7-29.7-29.7h-51c-16.4,0-29.7,13.3-29.7,29.7v3.1c-25,2.8-44.8,15.2-55.4,35c-10.8,20.3-9.4,45.1,3.7,64.7
	c19,28.5,58.1,42,107.4,37.2c44.7-4.4,95.1,8.2,105,40.8c4,13.2-0.9,26.3-13.5,37.3c-2.8-13.4-14.8-23.6-29.1-23.6h-85.3
	c-16.4,0-29.7,13.3-29.7,29.7l0,0c-1.7-4.1-4.2-7.9-7.5-11.2c-6.6-6.6-15.4-10.2-24.8-10.2s-18.2,3.6-24.8,10.2
	s-10.2,15.4-10.2,24.8s3.6,18.2,10.2,24.8l0,0c6.6,6.6,15.4,10.2,24.8,10.2c9.4,0,18.2-3.6,24.8-10.2c3.3-3.3,5.8-7.1,7.5-11.2l0,0
	c0,16.4,13.3,29.7,29.7,29.7h85.3c16.4,0,29.7-13.3,29.7-29.7v-6.7C365.6,360.2,378.7,333.5,370.6,307.2z M323.4,141.4
	c2.4-2.4,5.6-3.7,9-3.7s6.6,1.3,9,3.7s3.7,5.6,3.7,9s-1.3,6.6-3.7,9c-2.4,2.4-5.6,3.7-9,3.7s-6.6-1.3-9-3.7
	C318.5,154.5,318.5,146.4,323.4,141.4z M210.9,132.7c0-4.1,3.4-7.5,7.5-7.5h51c4.1,0,7.5,3.4,7.5,7.5V160c0,4.1-3.4,7.5-7.5,7.5h-51
	c-4.1,0-7.5-3.4-7.5-7.5L210.9,132.7L210.9,132.7z M168.5,379.8c-2.4,2.4-5.6,3.7-9,3.7s-6.6-1.3-9-3.7l0,0c-2.4-2.4-3.7-5.6-3.7-9
	s1.3-6.6,3.7-9s5.6-3.7,9-3.7s6.6,1.3,9,3.7C173.5,366.7,173.5,374.9,168.5,379.8z M314.2,384.5c0,4.1-3.4,7.5-7.5,7.5h-85.3
	c-4.1,0-7.5-3.4-7.5-7.5v-27.3c0-4.1,3.4-7.5,7.5-7.5h85.3c4.1,0,7.5,3.4,7.5,7.5V384.5z"/>
<g>
</g>
<g>
</g>
<g>
</g>
<g>
</g>
<g>
</g>
<g>
</g>
<g>
</g>
<g>
</g>
<g>
</g>
<g>
</g>
<g>
</g>
<g>
</g>
<g>
</g>
<g>
</g>
<g>
</g>
</svg>
